<svg width="1169" height="794" viewBox="0 0 1169 794" fill="none" xmlns="http://www.w3.org/2000/svg">
<path d="M735.44 375.8L851.36 233.48H737.36V218.6H870.8V231.8L756.32 374.12H870.56V389H735.44V375.8ZM901.258 218.6L956.938 310.28L1013.1 218.6H1031.34L965.338 325.64V389H948.538V325.16L882.778 218.6H901.258Z" fill="#4B4B4B"/>
<path d="M384.36 577V406.6H496.2V421.48H401.16V484.12H481.32V498.04H401.16V577H384.36Z" fill="#4B4B4B"/>
<path d="M723.08 490.6C723.08 480.2 724.84 470.04 728.36 460.12C732.04 450.04 737.32 440.92 744.2 432.76C751.08 424.44 759.56 417.88 769.64 413.08C779.72 408.12 791.16 405.64 803.96 405.64C819.16 405.64 832.12 409.16 842.84 416.2C853.72 423.08 861.72 431.96 866.84 442.84L853.64 451C849.96 443.48 845.32 437.56 839.72 433.24C834.12 428.76 828.12 425.56 821.72 423.64C815.48 421.72 809.24 420.76 803 420.76C792.76 420.76 783.72 422.84 775.88 427C768.04 431 761.4 436.44 755.96 443.32C750.68 450.04 746.68 457.64 743.96 466.12C741.24 474.44 739.88 482.92 739.88 491.56C739.88 501 741.48 510.04 744.68 518.68C747.88 527.32 752.36 535 758.12 541.72C763.88 548.28 770.6 553.56 778.28 557.56C786.12 561.4 794.6 563.32 803.72 563.32C810.12 563.32 816.68 562.2 823.4 559.96C830.12 557.72 836.36 554.28 842.12 549.64C848.04 545 852.76 539 856.28 531.64L870.2 538.84C866.68 547.32 861.24 554.52 853.88 560.44C846.52 566.36 838.28 570.84 829.16 573.88C820.2 576.92 811.4 578.44 802.76 578.44C791.08 578.44 780.36 575.96 770.6 571C760.84 565.88 752.36 559.16 745.16 550.84C738.12 542.36 732.68 532.92 728.84 522.52C725 511.96 723.08 501.32 723.08 490.6ZM1013.37 562.12V577H898.891V406.6H1011.21V421.48H915.691V482.92H998.971V497.08H915.691V562.12H1013.37ZM1143.8 438.52C1141.4 435.8 1138.6 433.4 1135.4 431.32C1132.2 429.08 1128.6 427.16 1124.6 425.56C1120.6 423.96 1116.28 422.68 1111.64 421.72C1107.16 420.76 1102.36 420.28 1097.24 420.28C1082.36 420.28 1071.4 423.16 1064.36 428.92C1057.48 434.52 1054.04 442.2 1054.04 451.96C1054.04 458.68 1055.64 463.96 1058.84 467.8C1062.2 471.64 1067.4 474.76 1074.44 477.16C1081.48 479.56 1090.44 482.04 1101.32 484.6C1113.48 487.16 1123.96 490.2 1132.76 493.72C1141.56 497.24 1148.36 502.04 1153.16 508.12C1157.96 514.04 1160.36 522.12 1160.36 532.36C1160.36 540.2 1158.84 547 1155.8 552.76C1152.76 558.52 1148.52 563.32 1143.08 567.16C1137.64 571 1131.16 573.88 1123.64 575.8C1116.12 577.56 1107.88 578.44 1098.92 578.44C1090.12 578.44 1081.64 577.56 1073.48 575.8C1065.48 573.88 1057.88 571.16 1050.68 567.64C1043.48 563.96 1036.76 559.32 1030.52 553.72L1038.92 540.04C1041.96 543.24 1045.56 546.28 1049.72 549.16C1054.04 551.88 1058.76 554.36 1063.88 556.6C1069.16 558.84 1074.76 560.6 1080.68 561.88C1086.76 563 1093 563.56 1099.4 563.56C1113 563.56 1123.56 561.08 1131.08 556.12C1138.76 551.16 1142.6 543.8 1142.6 534.04C1142.6 527 1140.68 521.4 1136.84 517.24C1133 512.92 1127.24 509.4 1119.56 506.68C1111.88 503.96 1102.44 501.32 1091.24 498.76C1079.4 496.04 1069.4 493 1061.24 489.64C1053.08 486.28 1046.92 481.88 1042.76 476.44C1038.76 470.84 1036.76 463.48 1036.76 454.36C1036.76 443.8 1039.32 434.92 1044.44 427.72C1049.72 420.36 1056.92 414.84 1066.04 411.16C1075.16 407.32 1085.64 405.4 1097.48 405.4C1105 405.4 1111.96 406.2 1118.36 407.8C1124.92 409.24 1130.92 411.4 1136.36 414.28C1141.96 417.16 1147.16 420.76 1151.96 425.08L1143.8 438.52Z" fill="#4B4B4B"/>
<path d="M193.596 302.6C193.596 292.2 195.356 282.04 198.876 272.12C202.556 262.04 207.836 252.92 214.716 244.76C221.596 236.44 230.076 229.88 240.156 225.08C250.236 220.12 261.676 217.64 274.476 217.64C289.676 217.64 302.636 221.16 313.356 228.2C324.236 235.08 332.236 243.96 337.356 254.84L324.156 263C320.476 255.48 315.836 249.56 310.236 245.24C304.636 240.76 298.636 237.56 292.236 235.64C285.996 233.72 279.756 232.76 273.516 232.76C263.276 232.76 254.236 234.84 246.396 239C238.556 243 231.916 248.44 226.476 255.32C221.196 262.04 217.196 269.64 214.476 278.12C211.756 286.44 210.396 294.92 210.396 303.56C210.396 313 211.996 322.04 215.196 330.68C218.396 339.32 222.876 347 228.636 353.72C234.396 360.28 241.116 365.56 248.796 369.56C256.636 373.4 265.116 375.32 274.236 375.32C280.636 375.32 287.196 374.2 293.916 371.96C300.636 369.72 306.876 366.28 312.636 361.64C318.556 357 323.276 351 326.796 343.64L340.716 350.84C337.196 359.32 331.756 366.52 324.396 372.44C317.036 378.36 308.796 382.84 299.676 385.88C290.716 388.92 281.916 390.44 273.276 390.44C261.596 390.44 250.876 387.96 241.116 383C231.356 377.88 222.876 371.16 215.676 362.84C208.636 354.36 203.196 344.92 199.356 334.52C195.516 323.96 193.596 313.32 193.596 302.6ZM369.407 389V218.6H441.407C448.767 218.6 455.487 220.12 461.567 223.16C467.647 226.2 472.927 230.36 477.407 235.64C482.047 240.76 485.567 246.52 487.967 252.92C490.527 259.16 491.807 265.56 491.807 272.12C491.807 280.28 490.207 287.96 487.007 295.16C483.967 302.36 479.567 308.44 473.807 313.4C468.207 318.36 461.567 321.64 453.887 323.24L495.647 389H476.687L436.607 326.12H386.207V389H369.407ZM386.207 311.24H441.887C448.607 311.24 454.447 309.4 459.407 305.72C464.367 302.04 468.207 297.24 470.927 291.32C473.647 285.24 475.007 278.84 475.007 272.12C475.007 265.24 473.407 258.92 470.207 253.16C467.167 247.24 463.007 242.52 457.727 239C452.607 235.32 446.847 233.48 440.447 233.48H386.207V311.24Z" fill="#4B4B4B"/>
<path d="M595.24 268.4H616.48L722.68 524H696.04L662.92 444.08H548.08L515.32 524H488.32L595.24 268.4ZM657.16 424.28L605.68 297.92L553.48 424.28H657.16Z" fill="#65B66D"/>
<path d="M517.04 256V0.399986H603.8C630.92 0.399986 653.48 6.15998 671.48 17.68C689.72 28.96 703.4 44.32 712.52 63.76C721.64 82.96 726.2 104.32 726.2 127.84C726.2 153.76 721.16 176.32 711.08 195.52C701.24 214.72 687.08 229.6 668.6 240.16C650.36 250.72 628.76 256 603.8 256H517.04ZM701 127.84C701 107.44 697.16 89.32 689.48 73.48C682.04 57.64 671.12 45.28 656.72 36.4C642.32 27.28 624.68 22.72 603.8 22.72H542.24V233.68H603.8C624.92 233.68 642.68 229 657.08 219.64C671.48 210.28 682.4 197.68 689.84 181.84C697.28 165.76 701 147.76 701 127.84Z" fill="#65B66D"/>
<path d="M605 793.8C587 793.8 570.68 790.2 556.04 783C541.4 775.8 528.8 766.08 518.24 753.84C507.68 741.36 499.52 727.44 493.76 712.08C488 696.48 485.12 680.52 485.12 664.2C485.12 647.16 488.12 630.96 494.12 615.6C500.12 600 508.52 586.2 519.32 574.2C530.36 561.96 543.2 552.36 557.84 545.4C572.48 538.2 588.32 534.6 605.36 534.6C623.36 534.6 639.68 538.32 654.32 545.76C668.96 553.2 681.44 563.16 691.76 575.64C702.32 588.12 710.48 602.04 716.24 617.4C722 632.76 724.88 648.48 724.88 664.56C724.88 681.6 721.88 697.92 715.88 713.52C709.88 728.88 701.48 742.68 690.68 754.92C679.88 766.92 667.16 776.4 652.52 783.36C637.88 790.32 622.04 793.8 605 793.8ZM510.32 664.2C510.32 678.12 512.6 691.56 517.16 704.52C521.72 717.24 528.2 728.64 536.6 738.72C545 748.56 554.96 756.48 566.48 762.48C578.24 768.24 591.08 771.12 605 771.12C619.64 771.12 632.72 768.12 644.24 762.12C656 755.88 665.96 747.72 674.12 737.64C682.52 727.32 688.88 715.8 693.2 703.08C697.52 690.36 699.68 677.4 699.68 664.2C699.68 650.28 697.4 636.96 692.84 624.24C688.28 611.52 681.68 600.12 673.04 590.04C664.64 579.96 654.68 572.04 643.16 566.28C631.64 560.52 618.92 557.64 605 557.64C590.6 557.64 577.52 560.64 565.76 566.64C554.24 572.64 544.28 580.8 535.88 591.12C527.72 601.2 521.36 612.6 516.8 625.32C512.48 638.04 510.32 651 510.32 664.2Z" fill="#65B66D"/>
</svg>
