<svg width="985" height="794" viewBox="0 0 985 794" fill="none" xmlns="http://www.w3.org/2000/svg">
<path d="M551.44 375.8L667.36 233.48H553.36V218.6H686.8V231.8L572.32 374.12H686.56V389H551.44V375.8ZM717.258 218.6L772.938 310.28L829.098 218.6H847.338L781.338 325.64V389H764.538V325.16L698.778 218.6H717.258Z" fill="white"/>
<path d="M200.36 577V406.6H312.2V421.48H217.16V484.12H297.32V498.04H217.16V577H200.36Z" fill="white"/>
<path d="M539.08 490.6C539.08 480.2 540.84 470.04 544.36 460.12C548.04 450.04 553.32 440.92 560.2 432.76C567.08 424.44 575.56 417.88 585.64 413.08C595.72 408.12 607.16 405.64 619.96 405.64C635.16 405.64 648.12 409.16 658.84 416.2C669.72 423.08 677.72 431.96 682.84 442.84L669.64 451C665.96 443.48 661.32 437.56 655.72 433.24C650.12 428.76 644.12 425.56 637.72 423.64C631.48 421.72 625.24 420.76 619 420.76C608.76 420.76 599.72 422.84 591.88 427C584.04 431 577.4 436.44 571.96 443.32C566.68 450.04 562.68 457.64 559.96 466.12C557.24 474.44 555.88 482.92 555.88 491.56C555.88 501 557.48 510.04 560.68 518.68C563.88 527.32 568.36 535 574.12 541.72C579.88 548.28 586.6 553.56 594.28 557.56C602.12 561.4 610.6 563.32 619.72 563.32C626.12 563.32 632.68 562.2 639.4 559.96C646.12 557.72 652.36 554.28 658.12 549.64C664.04 545 668.76 539 672.28 531.64L686.2 538.84C682.68 547.32 677.24 554.52 669.88 560.44C662.52 566.36 654.28 570.84 645.16 573.88C636.2 576.92 627.4 578.44 618.76 578.44C607.08 578.44 596.36 575.96 586.6 571C576.84 565.88 568.36 559.16 561.16 550.84C554.12 542.36 548.68 532.92 544.84 522.52C541 511.96 539.08 501.32 539.08 490.6ZM829.371 562.12V577H714.891V406.6H827.211V421.48H731.691V482.92H814.971V497.08H731.691V562.12H829.371ZM959.804 438.52C957.404 435.8 954.604 433.4 951.404 431.32C948.204 429.08 944.604 427.16 940.604 425.56C936.604 423.96 932.284 422.68 927.644 421.72C923.164 420.76 918.364 420.28 913.244 420.28C898.364 420.28 887.404 423.16 880.364 428.92C873.484 434.52 870.044 442.2 870.044 451.96C870.044 458.68 871.644 463.96 874.844 467.8C878.204 471.64 883.404 474.76 890.444 477.16C897.484 479.56 906.444 482.04 917.324 484.6C929.484 487.16 939.964 490.2 948.764 493.72C957.564 497.24 964.364 502.04 969.164 508.12C973.964 514.04 976.364 522.12 976.364 532.36C976.364 540.2 974.844 547 971.804 552.76C968.764 558.52 964.524 563.32 959.084 567.16C953.644 571 947.164 573.88 939.644 575.8C932.124 577.56 923.884 578.44 914.924 578.44C906.124 578.44 897.644 577.56 889.484 575.8C881.484 573.88 873.884 571.16 866.684 567.64C859.484 563.96 852.764 559.32 846.524 553.72L854.924 540.04C857.964 543.24 861.564 546.28 865.724 549.16C870.044 551.88 874.764 554.36 879.884 556.6C885.164 558.84 890.764 560.6 896.684 561.88C902.764 563 909.004 563.56 915.404 563.56C929.004 563.56 939.564 561.08 947.084 556.12C954.764 551.16 958.604 543.8 958.604 534.04C958.604 527 956.684 521.4 952.844 517.24C949.004 512.92 943.244 509.4 935.564 506.68C927.884 503.96 918.444 501.32 907.244 498.76C895.404 496.04 885.404 493 877.244 489.64C869.084 486.28 862.924 481.88 858.764 476.44C854.764 470.84 852.764 463.48 852.764 454.36C852.764 443.8 855.324 434.92 860.444 427.72C865.724 420.36 872.924 414.84 882.044 411.16C891.164 407.32 901.644 405.4 913.484 405.4C921.004 405.4 927.964 406.2 934.364 407.8C940.924 409.24 946.924 411.4 952.364 414.28C957.964 417.16 963.164 420.76 967.964 425.08L959.804 438.52Z" fill="white"/>
<path d="M10.08 302.6C10.08 292.2 11.84 282.04 15.36 272.12C19.04 262.04 24.32 252.92 31.2 244.76C38.08 236.44 46.56 229.88 56.64 225.08C66.72 220.12 78.16 217.64 90.96 217.64C106.16 217.64 119.12 221.16 129.84 228.2C140.72 235.08 148.72 243.96 153.84 254.84L140.64 263C136.96 255.48 132.32 249.56 126.72 245.24C121.12 240.76 115.12 237.56 108.72 235.64C102.48 233.72 96.24 232.76 90 232.76C79.76 232.76 70.72 234.84 62.88 239C55.04 243 48.4 248.44 42.96 255.32C37.68 262.04 33.68 269.64 30.96 278.12C28.24 286.44 26.88 294.92 26.88 303.56C26.88 313 28.48 322.04 31.68 330.68C34.88 339.32 39.36 347 45.12 353.72C50.88 360.28 57.6 365.56 65.28 369.56C73.12 373.4 81.6 375.32 90.72 375.32C97.12 375.32 103.68 374.2 110.4 371.96C117.12 369.72 123.36 366.28 129.12 361.64C135.04 357 139.76 351 143.28 343.64L157.2 350.84C153.68 359.32 148.24 366.52 140.88 372.44C133.52 378.36 125.28 382.84 116.16 385.88C107.2 388.92 98.4 390.44 89.76 390.44C78.08 390.44 67.36 387.96 57.6 383C47.84 377.88 39.36 371.16 32.16 362.84C25.12 354.36 19.68 344.92 15.84 334.52C12 323.96 10.08 313.32 10.08 302.6ZM185.891 389V218.6H257.891C265.251 218.6 271.971 220.12 278.051 223.16C284.131 226.2 289.411 230.36 293.891 235.64C298.531 240.76 302.051 246.52 304.451 252.92C307.011 259.16 308.291 265.56 308.291 272.12C308.291 280.28 306.691 287.96 303.491 295.16C300.451 302.36 296.051 308.44 290.291 313.4C284.691 318.36 278.051 321.64 270.371 323.24L312.131 389H293.171L253.091 326.12H202.691V389H185.891ZM202.691 311.24H258.371C265.091 311.24 270.931 309.4 275.891 305.72C280.851 302.04 284.691 297.24 287.411 291.32C290.131 285.24 291.491 278.84 291.491 272.12C291.491 265.24 289.891 258.92 286.691 253.16C283.651 247.24 279.491 242.52 274.211 239C269.091 235.32 263.331 233.48 256.931 233.48H202.691V311.24Z" fill="white"/>
<path d="M411.24 268.4H432.48L538.68 524H512.04L478.92 444.08H364.08L331.32 524H304.32L411.24 268.4ZM473.16 424.28L421.68 297.92L369.48 424.28H473.16Z" fill="#65B66D"/>
<path d="M333.04 256V0.399986H419.8C446.92 0.399986 469.48 6.15998 487.48 17.68C505.72 28.96 519.4 44.32 528.52 63.76C537.64 82.96 542.2 104.32 542.2 127.84C542.2 153.76 537.16 176.32 527.08 195.52C517.24 214.72 503.08 229.6 484.6 240.16C466.36 250.72 444.76 256 419.8 256H333.04ZM517 127.84C517 107.44 513.16 89.32 505.48 73.48C498.04 57.64 487.12 45.28 472.72 36.4C458.32 27.28 440.68 22.72 419.8 22.72H358.24V233.68H419.8C440.92 233.68 458.68 229 473.08 219.64C487.48 210.28 498.4 197.68 505.84 181.84C513.28 165.76 517 147.76 517 127.84Z" fill="#65B66D"/>
<path d="M421 793.8C403 793.8 386.68 790.2 372.04 783C357.4 775.8 344.8 766.08 334.24 753.84C323.68 741.36 315.52 727.44 309.76 712.08C304 696.48 301.12 680.52 301.12 664.2C301.12 647.16 304.12 630.96 310.12 615.6C316.12 600 324.52 586.2 335.32 574.2C346.36 561.96 359.2 552.36 373.84 545.4C388.48 538.2 404.32 534.6 421.36 534.6C439.36 534.6 455.68 538.32 470.32 545.76C484.96 553.2 497.44 563.16 507.76 575.64C518.32 588.12 526.48 602.04 532.24 617.4C538 632.76 540.88 648.48 540.88 664.56C540.88 681.6 537.88 697.92 531.88 713.52C525.88 728.88 517.48 742.68 506.68 754.92C495.88 766.92 483.16 776.4 468.52 783.36C453.88 790.32 438.04 793.8 421 793.8ZM326.32 664.2C326.32 678.12 328.6 691.56 333.16 704.52C337.72 717.24 344.2 728.64 352.6 738.72C361 748.56 370.96 756.48 382.48 762.48C394.24 768.24 407.08 771.12 421 771.12C435.64 771.12 448.72 768.12 460.24 762.12C472 755.88 481.96 747.72 490.12 737.64C498.52 727.32 504.88 715.8 509.2 703.08C513.52 690.36 515.68 677.4 515.68 664.2C515.68 650.28 513.4 636.96 508.84 624.24C504.28 611.52 497.68 600.12 489.04 590.04C480.64 579.96 470.68 572.04 459.16 566.28C447.64 560.52 434.92 557.64 421 557.64C406.6 557.64 393.52 560.64 381.76 566.64C370.24 572.64 360.28 580.8 351.88 591.12C343.72 601.2 337.36 612.6 332.8 625.32C328.48 638.04 326.32 651 326.32 664.2Z" fill="#65B66D"/>
</svg>
